<svg id="Grupo_1" data-name="Grupo 1" xmlns="http://www.w3.org/2000/svg" width="2062" height="659" viewBox="0 0 2062 659">
  <metadata><?xpacket begin="﻿" id="W5M0MpCehiHzreSzNTczkc9d"?>
<x:xmpmeta xmlns:x="adobe:ns:meta/" x:xmptk="Adobe XMP Core 5.6-c138 79.159824, 2016/09/14-01:09:01        ">
   <rdf:RDF xmlns:rdf="http://www.w3.org/1999/02/22-rdf-syntax-ns#">
      <rdf:Description rdf:about=""/>
   </rdf:RDF>
</x:xmpmeta>
                                                                                                    
                                                                                                    
                                                                                                    
                                                                                                    
                                                                                                    
                                                                                                    
                                                                                                    
                                                                                                    
                                                                                                    
                                                                                                    
                                                                                                    
                                                                                                    
                                                                                                    
                                                                                                    
                                                                                                    
                                                                                                    
                                                                                                    
                                                                                                    
                                                                                                    
                                                                                                    
                           
<?xpacket end="w"?></metadata>
<defs>
    <style>
      .cls-1, .cls-2, .cls-3 {
        fill-rule: evenodd;
      }

      .cls-2 {
        fill: #ac6234;
      }

      .cls-3 {
        fill: #fff;
      }
    </style>
  </defs>
  <path id="Forma_2_copia_2" data-name="Forma 2 copia 2" class="cls-1" d="M245.848,659H1823.57s241.47-38.983,238.4-319.337S1879.33-1.569,1804.13.033s-1543.958,0-1543.958,0S100.558,4.305,26.89,197.617,32.518,614.143,245.848,659Z"/>
  <path id="Forma_2" data-name="Forma 2" class="cls-2" d="M263,638H1805s236-36.5,233-299S1859.5,19.5,1786,21,277,21,277,21,121,25,49,206,54.5,596,263,638Z"/>
  <path id="Forma_3" data-name="Forma 3" class="cls-3" d="M1252,582H252s-67-29-87-67H1224Z"/>
  <path id="Forma_3_copia" data-name="Forma 3 copia" class="cls-1" d="M167.758,520.693A135.048,135.048,0,0,1,160,509H1222l4,11Z"/>
  <path id="Forma_2_copia" data-name="Forma 2 copia" class="cls-3" d="M24,321l2013-2s-0.5-101.5-46-176c-62.5-97.5-147-122-205-122H277S160,27,91,126,24,321,24,321ZM-45,162"/>
  <path id="Forma_1" data-name="Forma 1" class="cls-1" d="M297,292s-1.979,4-3.75,4H205v-3L289.13,35.414s7.8-7.822,11.556-.619C308.907,55.926,333.894,135.986,337,148c5.42,20.97-7.737,35.906-4,49a23.831,23.831,0,0,0,11.263,2.908c24.748,0.322,73.523,1.2,91.737,1.092,6.583,1.416,7.667,5.334,8,12-6.609,13.806-20.188,77.387-30,83H326v-3s18.25-53.75,18-61c-0.137-3.972-3.5-10.75-15-8-12.833,6.583-10.375,9.87-15,15C311,244.638,297,292,297,292ZM1438,60l106,1c0.33,3.666,5,1.5,1,11s-14.5,7-22,10-29.8,48.614-25,69c4.63,2.273,12.29,3.6,15,8,1.11,2.757-.31,6.989-1,11-5.72,1.911-17.88,5.272-23,9-16.11,11.723-30.49,67.5-37,90-2.64,9.13-3.23,18.805-8,26-9.3,5.353-73.06,2.125-90,2-0.33-1-.67-2-1-3-5.19,6.076,64.5-200.5,71-218S1438,60,1438,60Zm338,0c2.6-1.2,50.67,0,76,0,0.33,0.333-15-6.2,1,1s-23.9,55.121-18,88c7.09,4.336,19.2,8.4,19,13s-3.75,8.059-7,10c-21,4.6-24.06,11.357-26,13-2.6,2.2-6,9.2-7,13s-26,88-27,92a9.91,9.91,0,0,1-4,6c-2.5,1.5-83.75.25-89,0s-1.5,2.5-2-2,34.4-107,34-110-0.25-3-1-5-1.67-1.334-3-3c-8.14-3.905-14.16-1.322-14-14,7.81-6.484,23.39-9.211,30-17,1.94-2.291,25.6-69.8,29-76S1773.4,61.2,1776,60ZM478,202H672c1.2,2.317,1.494,2.282,2,6,4.037,8.091-9.383,47.428-13,55,5.361-11.224-49,154.5-56,172s-8.8,19.8-15,23-31.116,2-44,2c-84.625,0-147.2-.8-150-1s-7.6-2.2-6-8,36.5-123,45-127,8.371-3.721,14.013-4.391C476.21,316.381,542,319,542,319l6.872-4.67S576,239,577,231s-8-9.5-15-7-13,10.5-15,17-10.169,38.325-24,52H447s-6.5,1-5-6,24.946-78.8,29-79C472.753,205.7,476.086,203.837,478,202Zm231,0,196,1s4.846,0.039,2,10c-4,14-20.277,75.391-31,80H798v-2c-8.071-17.141,21.006-55.167,5-66-3.333-.333-0.5-4-10-1s-13.105,11.646-17,20c7.365-15.8-63,192-66,202s-3.2,12.8-10,13-71.792,4.27-78-2c-5.159-7.961,15-63,15-63s27.329-85.96,43-127C689.7,241.6,691.558,218.791,709,202Zm227,0h195c0.67,1.333,1.33,2.667,2,4,3.28,7.13-21,77.667-22,80s-3.17,6.833-8,7-77.33.167-73,0-4-1.333-4-2c-9.26-20.142,32.16-66.864-5-67-9.5,2.569-7.82.882-14,15,1.91-3.179-37.525,105.618-54,161-4.682,15.738-12.513,56.471-28,59-24.664,0-67,2.5-73-2s-2-16-2-16,71.47-225.011,78-232C930.423,202.261,936,202,936,202Zm227,0c8.5-3,50,0,75,0,0.33,2.666,2.5.5,4,8s-3.17,16.642-5,22c-5.96,17.431-20.74,61.155-22,63-4.81,3.451-17,2-25,2-22-.333-57-1-57-1s-9.5.5-9-3,16.01-61.289,28-80C1155.67,209.334,1154.5,205,1163,202Zm121,0c24.66,0,70.33.333,74,0s3.33,2,5,4,1.5,3.5-2,15-21.48,68.555-25,74c-4.99,3.543-17.78,2-26,2h-64c-0.33-1.333-.67-2.667-1-4,2.7-5,25-74.5,32-85S1281.43,204.584,1284,202Zm219,0c2.75-.75,167.5-1.5,183,0s13,3.667,13,5c6.16,11.91,3.5,2.5,2,10s-26.62,85.191-34,107c-8.56,25.287-32.5,98-37,111s-12.5,23-20,24-178.5,1-185,1-3.88,3.7-9-4c-4.52-8.834,3.66-26.3,6-34q12-34.5,24-69c4.76-13.533,5.85-28.342,19-33h94s13.5,1.667,18-8,19.24-43.3,24-63c3.62-14.966-7-31-14-25s-15.5,19-18,28-6.25,31.313-20,41c-3.36,1-72.64,1.083-79-1,4.75,3-1.75-1.75-2-6s23.5-73.5,25-78S1500.25,202.75,1503,202ZM317,320h91v3s-40,122-42,126-8.759,9.479-14,10c-177.006.267-191.4-.4-194-1s-2.4-3.4-3-7c-1.678-10.069,28.668-89.337,42-130l90-1v3c12.21-14.428-35,101.333-34,106s7,10.667,14,9,14.333-10.333,16-13S316.774,322.737,317,320Zm799,0h91c0,1-.5-1,0,3s-7,22-7,22-34,88-23,92,16.5-.5,21-5,6.34-15.454,10-26c12.18-35.064,31.21-94.474,29-86,30.33-.333,60.67.333,91,0v3c1.34-1.575-24.67,70.242-34,98-4.99,14.867-6.17,37.418-25,38-9.16.5-171.33,0-176,0s-22.33,3-18-13S1098.64,367.65,1116,320Zm230,0c30.33,0.333,60.67-.333,91,0,6.79-10.9-49.61,146.931-78,233-6.72,20.388-11.69,39.276-19,58-3.47,8.9-6,22-11,22s-2,2.5-7-13-24.84-79.633-33-108c-4.13-14.366-3.5-8,2-24S1329.15,365.878,1346,320Zm339-1s77.67-.667,85,0,5.33,0.667,4,6-96.33,292.667-98,298-6.67,11.667-11,4c-4.16-7.358-35-105-38-110s-1-3.333-1-14S1685,319,1685,319Zm-135,23s-14,10.5-10,6-33.5,82.5-25,88,7,2.5,15,2,36-78,33-88S1550,342,1550,342ZM521.172,340.973c-8,4-34.172,85.527-33.172,90.027s6,7,6,7,6,2.5,10,2,9-9,9-9,28.5-75.5,24-82-5-7-5-7S529.172,336.973,521.172,340.973ZM153,443,715,82m499,122"/>
  <path id="Forma_4" data-name="Forma 4" class="cls-1" d="M-227,489"/>
</svg>
