<svg xmlns="http://www.w3.org/2000/svg" version="1.1" xmlns:xlink="http://www.w3.org/1999/xlink" xmlns:svgjs="http://svgjs.dev/svgjs" width="1440" height="560" preserveAspectRatio="none" viewBox="0 0 1440 560"><g mask="url(&quot;#SvgjsMask3536&quot;)" fill="none"><rect width="1440" height="560" x="0" y="0" fill="url(&quot;#SvgjsLinearGradient3537&quot;)"></rect><path d="M36 -42.47L100.95 -4.97L100.95 70.03L36 107.53L-28.95 70.03L-28.95 -4.97zM100.95 70.03L165.91 107.53L165.91 182.53L100.95 220.03L36 182.53L36 107.53zM36 182.53L100.95 220.03L100.95 295.03L36 332.53L-28.95 295.03L-28.95 220.03zM100.95 295.03L165.91 332.53L165.91 407.53L100.95 445.03L36 407.53L36 332.53zM165.91 -42.47L230.86 -4.97L230.86 70.03L165.91 107.53L100.95 70.03L100.95 -4.97zM165.91 182.53L230.86 220.03L230.86 295.03L165.91 332.53L100.95 295.03L100.95 220.03zM230.86 295.03L295.81 332.53L295.81 407.53L230.86 445.03L165.91 407.53L165.91 332.53zM165.91 407.53L230.86 445.03L230.86 520.03L165.91 557.53L100.95 520.03L100.95 445.03zM295.81 182.53L360.77 220.03L360.77 295.03L295.81 332.53L230.86 295.03L230.86 220.03zM360.77 295.03L425.72 332.53L425.72 407.53L360.77 445.03L295.81 407.53L295.81 332.53zM360.77 520.03L425.72 557.53L425.72 632.53L360.77 670.03L295.81 632.53L295.81 557.53zM425.72 182.53L490.68 220.03L490.68 295.03L425.72 332.53L360.77 295.03L360.77 220.03zM425.72 407.53L490.68 445.03L490.68 520.03L425.72 557.53L360.77 520.03L360.77 445.03zM555.63 182.53L620.58 220.03L620.58 295.03L555.63 332.53L490.68 295.03L490.68 220.03zM620.58 520.03L685.54 557.53L685.54 632.53L620.58 670.03L555.63 632.53L555.63 557.53zM685.54 -42.47L750.49 -4.97L750.49 70.03L685.54 107.53L620.58 70.03L620.58 -4.97zM750.49 70.03L815.45 107.53L815.45 182.53L750.49 220.03L685.54 182.53L685.54 107.53zM815.44 182.53L880.4 220.03L880.4 295.03L815.44 332.53L750.49 295.03L750.49 220.03zM880.4 295.03L945.35 332.53L945.35 407.53L880.4 445.03L815.44 407.53L815.44 332.53zM880.4 520.03L945.35 557.53L945.35 632.53L880.4 670.03L815.44 632.53L815.44 557.53zM1075.26 182.53L1140.21 220.03L1140.21 295.03L1075.26 332.53L1010.31 295.03L1010.31 220.03zM1140.21 295.03L1205.17 332.53L1205.17 407.53L1140.21 445.03L1075.26 407.53L1075.26 332.53zM1075.26 407.53L1140.21 445.03L1140.21 520.03L1075.26 557.53L1010.31 520.03L1010.31 445.03zM1205.17 -42.47L1270.12 -4.97L1270.12 70.03L1205.17 107.53L1140.21 70.03L1140.21 -4.97zM1205.17 407.53L1270.12 445.03L1270.12 520.03L1205.17 557.53L1140.21 520.03L1140.21 445.03zM1335.08 182.53L1400.03 220.03L1400.03 295.03L1335.08 332.53L1270.12 295.03L1270.12 220.03zM1335.08 407.53L1400.03 445.03L1400.03 520.03L1335.08 557.53L1270.12 520.03L1270.12 445.03zM1529.94 70.03L1594.89 107.53L1594.89 182.53L1529.94 220.03L1464.98 182.53L1464.98 107.53zM1529.94 295.03L1594.89 332.53L1594.89 407.53L1529.94 445.03L1464.98 407.53L1464.98 332.53z" stroke="url(&quot;#SvgjsLinearGradient3538&quot;)" stroke-width="2"></path><path d="M28.5 -42.47 a7.5 7.5 0 1 0 15 0 a7.5 7.5 0 1 0 -15 0zM93.45 -4.97 a7.5 7.5 0 1 0 15 0 a7.5 7.5 0 1 0 -15 0zM93.45 70.03 a7.5 7.5 0 1 0 15 0 a7.5 7.5 0 1 0 -15 0zM28.5 107.53 a7.5 7.5 0 1 0 15 0 a7.5 7.5 0 1 0 -15 0zM-36.45 70.03 a7.5 7.5 0 1 0 15 0 a7.5 7.5 0 1 0 -15 0zM-36.45 -4.97 a7.5 7.5 0 1 0 15 0 a7.5 7.5 0 1 0 -15 0zM158.41 107.53 a7.5 7.5 0 1 0 15 0 a7.5 7.5 0 1 0 -15 0zM158.41 182.53 a7.5 7.5 0 1 0 15 0 a7.5 7.5 0 1 0 -15 0zM93.45 220.03 a7.5 7.5 0 1 0 15 0 a7.5 7.5 0 1 0 -15 0zM28.5 182.53 a7.5 7.5 0 1 0 15 0 a7.5 7.5 0 1 0 -15 0zM93.45 295.03 a7.5 7.5 0 1 0 15 0 a7.5 7.5 0 1 0 -15 0zM28.5 332.53 a7.5 7.5 0 1 0 15 0 a7.5 7.5 0 1 0 -15 0zM-36.45 295.03 a7.5 7.5 0 1 0 15 0 a7.5 7.5 0 1 0 -15 0zM-36.45 220.03 a7.5 7.5 0 1 0 15 0 a7.5 7.5 0 1 0 -15 0zM158.41 332.53 a7.5 7.5 0 1 0 15 0 a7.5 7.5 0 1 0 -15 0zM158.41 407.53 a7.5 7.5 0 1 0 15 0 a7.5 7.5 0 1 0 -15 0zM93.45 445.03 a7.5 7.5 0 1 0 15 0 a7.5 7.5 0 1 0 -15 0zM28.5 407.53 a7.5 7.5 0 1 0 15 0 a7.5 7.5 0 1 0 -15 0zM158.41 -42.47 a7.5 7.5 0 1 0 15 0 a7.5 7.5 0 1 0 -15 0zM223.36 -4.97 a7.5 7.5 0 1 0 15 0 a7.5 7.5 0 1 0 -15 0zM223.36 70.03 a7.5 7.5 0 1 0 15 0 a7.5 7.5 0 1 0 -15 0zM223.36 220.03 a7.5 7.5 0 1 0 15 0 a7.5 7.5 0 1 0 -15 0zM223.36 295.03 a7.5 7.5 0 1 0 15 0 a7.5 7.5 0 1 0 -15 0zM288.31 332.53 a7.5 7.5 0 1 0 15 0 a7.5 7.5 0 1 0 -15 0zM288.31 407.53 a7.5 7.5 0 1 0 15 0 a7.5 7.5 0 1 0 -15 0zM223.36 445.03 a7.5 7.5 0 1 0 15 0 a7.5 7.5 0 1 0 -15 0zM223.36 520.03 a7.5 7.5 0 1 0 15 0 a7.5 7.5 0 1 0 -15 0zM158.41 557.53 a7.5 7.5 0 1 0 15 0 a7.5 7.5 0 1 0 -15 0zM93.45 520.03 a7.5 7.5 0 1 0 15 0 a7.5 7.5 0 1 0 -15 0zM288.31 182.53 a7.5 7.5 0 1 0 15 0 a7.5 7.5 0 1 0 -15 0zM353.27 220.03 a7.5 7.5 0 1 0 15 0 a7.5 7.5 0 1 0 -15 0zM353.27 295.03 a7.5 7.5 0 1 0 15 0 a7.5 7.5 0 1 0 -15 0zM418.22 332.53 a7.5 7.5 0 1 0 15 0 a7.5 7.5 0 1 0 -15 0zM418.22 407.53 a7.5 7.5 0 1 0 15 0 a7.5 7.5 0 1 0 -15 0zM353.27 445.03 a7.5 7.5 0 1 0 15 0 a7.5 7.5 0 1 0 -15 0zM353.27 520.03 a7.5 7.5 0 1 0 15 0 a7.5 7.5 0 1 0 -15 0zM418.22 557.53 a7.5 7.5 0 1 0 15 0 a7.5 7.5 0 1 0 -15 0zM418.22 632.53 a7.5 7.5 0 1 0 15 0 a7.5 7.5 0 1 0 -15 0zM353.27 670.03 a7.5 7.5 0 1 0 15 0 a7.5 7.5 0 1 0 -15 0zM288.31 632.53 a7.5 7.5 0 1 0 15 0 a7.5 7.5 0 1 0 -15 0zM288.31 557.53 a7.5 7.5 0 1 0 15 0 a7.5 7.5 0 1 0 -15 0zM418.22 182.53 a7.5 7.5 0 1 0 15 0 a7.5 7.5 0 1 0 -15 0zM483.18 220.03 a7.5 7.5 0 1 0 15 0 a7.5 7.5 0 1 0 -15 0zM483.18 295.03 a7.5 7.5 0 1 0 15 0 a7.5 7.5 0 1 0 -15 0zM483.18 445.03 a7.5 7.5 0 1 0 15 0 a7.5 7.5 0 1 0 -15 0zM483.18 520.03 a7.5 7.5 0 1 0 15 0 a7.5 7.5 0 1 0 -15 0zM548.13 182.53 a7.5 7.5 0 1 0 15 0 a7.5 7.5 0 1 0 -15 0zM613.08 220.03 a7.5 7.5 0 1 0 15 0 a7.5 7.5 0 1 0 -15 0zM613.08 295.03 a7.5 7.5 0 1 0 15 0 a7.5 7.5 0 1 0 -15 0zM548.13 332.53 a7.5 7.5 0 1 0 15 0 a7.5 7.5 0 1 0 -15 0zM613.08 520.03 a7.5 7.5 0 1 0 15 0 a7.5 7.5 0 1 0 -15 0zM678.04 557.53 a7.5 7.5 0 1 0 15 0 a7.5 7.5 0 1 0 -15 0zM678.04 632.53 a7.5 7.5 0 1 0 15 0 a7.5 7.5 0 1 0 -15 0zM613.08 670.03 a7.5 7.5 0 1 0 15 0 a7.5 7.5 0 1 0 -15 0zM548.13 632.53 a7.5 7.5 0 1 0 15 0 a7.5 7.5 0 1 0 -15 0zM548.13 557.53 a7.5 7.5 0 1 0 15 0 a7.5 7.5 0 1 0 -15 0zM678.04 -42.47 a7.5 7.5 0 1 0 15 0 a7.5 7.5 0 1 0 -15 0zM742.99 -4.97 a7.5 7.5 0 1 0 15 0 a7.5 7.5 0 1 0 -15 0zM742.99 70.03 a7.5 7.5 0 1 0 15 0 a7.5 7.5 0 1 0 -15 0zM678.04 107.53 a7.5 7.5 0 1 0 15 0 a7.5 7.5 0 1 0 -15 0zM613.08 70.03 a7.5 7.5 0 1 0 15 0 a7.5 7.5 0 1 0 -15 0zM613.08 -4.97 a7.5 7.5 0 1 0 15 0 a7.5 7.5 0 1 0 -15 0zM807.95 107.53 a7.5 7.5 0 1 0 15 0 a7.5 7.5 0 1 0 -15 0zM807.95 182.53 a7.5 7.5 0 1 0 15 0 a7.5 7.5 0 1 0 -15 0zM742.99 220.03 a7.5 7.5 0 1 0 15 0 a7.5 7.5 0 1 0 -15 0zM678.04 182.53 a7.5 7.5 0 1 0 15 0 a7.5 7.5 0 1 0 -15 0zM807.94 182.53 a7.5 7.5 0 1 0 15 0 a7.5 7.5 0 1 0 -15 0zM872.9 220.03 a7.5 7.5 0 1 0 15 0 a7.5 7.5 0 1 0 -15 0zM872.9 295.03 a7.5 7.5 0 1 0 15 0 a7.5 7.5 0 1 0 -15 0zM807.94 332.53 a7.5 7.5 0 1 0 15 0 a7.5 7.5 0 1 0 -15 0zM742.99 295.03 a7.5 7.5 0 1 0 15 0 a7.5 7.5 0 1 0 -15 0zM937.85 332.53 a7.5 7.5 0 1 0 15 0 a7.5 7.5 0 1 0 -15 0zM937.85 407.53 a7.5 7.5 0 1 0 15 0 a7.5 7.5 0 1 0 -15 0zM872.9 445.03 a7.5 7.5 0 1 0 15 0 a7.5 7.5 0 1 0 -15 0zM807.94 407.53 a7.5 7.5 0 1 0 15 0 a7.5 7.5 0 1 0 -15 0zM872.9 520.03 a7.5 7.5 0 1 0 15 0 a7.5 7.5 0 1 0 -15 0zM937.85 557.53 a7.5 7.5 0 1 0 15 0 a7.5 7.5 0 1 0 -15 0zM937.85 632.53 a7.5 7.5 0 1 0 15 0 a7.5 7.5 0 1 0 -15 0zM872.9 670.03 a7.5 7.5 0 1 0 15 0 a7.5 7.5 0 1 0 -15 0zM807.94 632.53 a7.5 7.5 0 1 0 15 0 a7.5 7.5 0 1 0 -15 0zM807.94 557.53 a7.5 7.5 0 1 0 15 0 a7.5 7.5 0 1 0 -15 0zM1067.76 182.53 a7.5 7.5 0 1 0 15 0 a7.5 7.5 0 1 0 -15 0zM1132.71 220.03 a7.5 7.5 0 1 0 15 0 a7.5 7.5 0 1 0 -15 0zM1132.71 295.03 a7.5 7.5 0 1 0 15 0 a7.5 7.5 0 1 0 -15 0zM1067.76 332.53 a7.5 7.5 0 1 0 15 0 a7.5 7.5 0 1 0 -15 0zM1002.81 295.03 a7.5 7.5 0 1 0 15 0 a7.5 7.5 0 1 0 -15 0zM1002.81 220.03 a7.5 7.5 0 1 0 15 0 a7.5 7.5 0 1 0 -15 0zM1197.67 332.53 a7.5 7.5 0 1 0 15 0 a7.5 7.5 0 1 0 -15 0zM1197.67 407.53 a7.5 7.5 0 1 0 15 0 a7.5 7.5 0 1 0 -15 0zM1132.71 445.03 a7.5 7.5 0 1 0 15 0 a7.5 7.5 0 1 0 -15 0zM1067.76 407.53 a7.5 7.5 0 1 0 15 0 a7.5 7.5 0 1 0 -15 0zM1132.71 520.03 a7.5 7.5 0 1 0 15 0 a7.5 7.5 0 1 0 -15 0zM1067.76 557.53 a7.5 7.5 0 1 0 15 0 a7.5 7.5 0 1 0 -15 0zM1002.81 520.03 a7.5 7.5 0 1 0 15 0 a7.5 7.5 0 1 0 -15 0zM1002.81 445.03 a7.5 7.5 0 1 0 15 0 a7.5 7.5 0 1 0 -15 0zM1197.67 -42.47 a7.5 7.5 0 1 0 15 0 a7.5 7.5 0 1 0 -15 0zM1262.62 -4.97 a7.5 7.5 0 1 0 15 0 a7.5 7.5 0 1 0 -15 0zM1262.62 70.03 a7.5 7.5 0 1 0 15 0 a7.5 7.5 0 1 0 -15 0zM1197.67 107.53 a7.5 7.5 0 1 0 15 0 a7.5 7.5 0 1 0 -15 0zM1132.71 70.03 a7.5 7.5 0 1 0 15 0 a7.5 7.5 0 1 0 -15 0zM1132.71 -4.97 a7.5 7.5 0 1 0 15 0 a7.5 7.5 0 1 0 -15 0zM1262.62 445.03 a7.5 7.5 0 1 0 15 0 a7.5 7.5 0 1 0 -15 0zM1262.62 520.03 a7.5 7.5 0 1 0 15 0 a7.5 7.5 0 1 0 -15 0zM1197.67 557.53 a7.5 7.5 0 1 0 15 0 a7.5 7.5 0 1 0 -15 0zM1327.58 182.53 a7.5 7.5 0 1 0 15 0 a7.5 7.5 0 1 0 -15 0zM1392.53 220.03 a7.5 7.5 0 1 0 15 0 a7.5 7.5 0 1 0 -15 0zM1392.53 295.03 a7.5 7.5 0 1 0 15 0 a7.5 7.5 0 1 0 -15 0zM1327.58 332.53 a7.5 7.5 0 1 0 15 0 a7.5 7.5 0 1 0 -15 0zM1262.62 295.03 a7.5 7.5 0 1 0 15 0 a7.5 7.5 0 1 0 -15 0zM1262.62 220.03 a7.5 7.5 0 1 0 15 0 a7.5 7.5 0 1 0 -15 0zM1327.58 407.53 a7.5 7.5 0 1 0 15 0 a7.5 7.5 0 1 0 -15 0zM1392.53 445.03 a7.5 7.5 0 1 0 15 0 a7.5 7.5 0 1 0 -15 0zM1392.53 520.03 a7.5 7.5 0 1 0 15 0 a7.5 7.5 0 1 0 -15 0zM1327.58 557.53 a7.5 7.5 0 1 0 15 0 a7.5 7.5 0 1 0 -15 0zM1522.44 70.03 a7.5 7.5 0 1 0 15 0 a7.5 7.5 0 1 0 -15 0zM1587.39 107.53 a7.5 7.5 0 1 0 15 0 a7.5 7.5 0 1 0 -15 0zM1587.39 182.53 a7.5 7.5 0 1 0 15 0 a7.5 7.5 0 1 0 -15 0zM1522.44 220.03 a7.5 7.5 0 1 0 15 0 a7.5 7.5 0 1 0 -15 0zM1457.48 182.53 a7.5 7.5 0 1 0 15 0 a7.5 7.5 0 1 0 -15 0zM1457.48 107.53 a7.5 7.5 0 1 0 15 0 a7.5 7.5 0 1 0 -15 0zM1522.44 295.03 a7.5 7.5 0 1 0 15 0 a7.5 7.5 0 1 0 -15 0zM1587.39 332.53 a7.5 7.5 0 1 0 15 0 a7.5 7.5 0 1 0 -15 0zM1587.39 407.53 a7.5 7.5 0 1 0 15 0 a7.5 7.5 0 1 0 -15 0zM1522.44 445.03 a7.5 7.5 0 1 0 15 0 a7.5 7.5 0 1 0 -15 0zM1457.48 407.53 a7.5 7.5 0 1 0 15 0 a7.5 7.5 0 1 0 -15 0zM1457.48 332.53 a7.5 7.5 0 1 0 15 0 a7.5 7.5 0 1 0 -15 0z" fill="url(&quot;#SvgjsLinearGradient3538&quot;)"></path><path d="M112.4 -19.1L155.7 5.9L155.7 55.9L112.4 80.9L69.09 55.9L69.09 5.9zM112.4 280.9L155.7 305.9L155.7 355.9L112.4 380.9L69.09 355.9L69.09 305.9zM112.4 430.9L155.7 455.9L155.7 505.9L112.4 530.9L69.09 505.9L69.09 455.9zM199 130.9L242.3 155.9L242.3 205.9L199 230.9L155.7 205.9L155.7 155.9zM415.51 55.9L458.82 80.9L458.82 130.9L415.51 155.9L372.21 130.9L372.21 80.9zM415.51 205.9L458.82 230.9L458.82 280.9L415.51 305.9L372.21 280.9L372.21 230.9zM372.21 280.9L415.51 305.9L415.51 355.9L372.21 380.9L328.91 355.9L328.91 305.9zM458.82 130.9L502.12 155.9L502.12 205.9L458.82 230.9L415.51 205.9L415.51 155.9zM632.02 -19.1L675.33 5.9L675.33 55.9L632.02 80.9L588.72 55.9L588.72 5.9zM718.63 430.9L761.93 455.9L761.93 505.9L718.63 530.9L675.33 505.9L675.33 455.9zM848.54 505.9L891.84 530.9L891.84 580.9L848.54 605.9L805.24 580.9L805.24 530.9zM935.14 355.9L978.45 380.9L978.45 430.9L935.14 455.9L891.84 430.9L891.84 380.9zM978.45 -19.1L1021.75 5.9L1021.75 55.9L978.45 80.9L935.14 55.9L935.14 5.9zM1021.75 505.9L1065.05 530.9L1065.05 580.9L1021.75 605.9L978.45 580.9L978.45 530.9zM1065.05 130.9L1108.35 155.9L1108.35 205.9L1065.05 230.9L1021.75 205.9L1021.75 155.9zM1108.35 205.9L1151.65 230.9L1151.65 280.9L1108.35 305.9L1065.05 280.9L1065.05 230.9zM1151.65 280.9L1194.96 305.9L1194.96 355.9L1151.65 380.9L1108.35 355.9L1108.35 305.9zM1238.26 280.9L1281.56 305.9L1281.56 355.9L1238.26 380.9L1194.96 355.9L1194.96 305.9zM1281.56 505.9L1324.87 530.9L1324.87 580.9L1281.56 605.9L1238.26 580.9L1238.26 530.9zM1411.47 -19.1L1454.77 5.9L1454.77 55.9L1411.47 80.9L1368.17 55.9L1368.17 5.9z" stroke="url(&quot;#SvgjsLinearGradient3539&quot;)" stroke-width="2"></path></g><defs><mask id="SvgjsMask3536"><rect width="1440" height="560" fill="#ffffff"></rect></mask><linearGradient x1="50%" y1="0%" x2="50%" y2="100%" gradientUnits="userSpaceOnUse" id="SvgjsLinearGradient3537"><stop stop-color="rgba(198, 106, 0, 1)" offset="0"></stop><stop stop-color="rgba(16, 27, 6, 1)" offset="1"></stop></linearGradient><linearGradient x1="720" y1="0" x2="720" y2="560" gradientUnits="userSpaceOnUse" id="SvgjsLinearGradient3538"><stop stop-color="rgba(16, 27, 6, 1)" offset="0.37"></stop><stop stop-color="rgba(198, 106, 0, 0)" offset="1"></stop></linearGradient><linearGradient x1="720" y1="0" x2="720" y2="560" gradientUnits="userSpaceOnUse" id="SvgjsLinearGradient3539"><stop stop-color="rgba(198, 106, 0, 1)" offset="0"></stop><stop stop-color="rgba(255, 255, 255, 1)" offset="0.48"></stop><stop stop-color="rgba(16, 27, 6, 1)" offset="1"></stop></linearGradient></defs></svg>