<svg xmlns="http://www.w3.org/2000/svg" version="1.1" xmlns:xlink="http://www.w3.org/1999/xlink" xmlns:svgjs="http://svgjs.dev/svgjs" width="1440" height="560" preserveAspectRatio="none" viewBox="0 0 1440 560"><g mask="url(&quot;#SvgjsMask2782&quot;)" fill="none"><rect width="1440" height="560" x="0" y="0" fill="url(&quot;#SvgjsLinearGradient2783&quot;)"></rect><path d="M47.8 160.65L112.75 198.15L112.75 273.15L47.8 310.65L-17.15 273.15L-17.15 198.15zM112.75 273.15L177.71 310.65L177.71 385.65L112.75 423.15L47.8 385.65L47.8 310.65zM47.8 385.65L112.75 423.15L112.75 498.15L47.8 535.65L-17.15 498.15L-17.15 423.15zM242.66 273.15L307.62 310.65L307.62 385.65L242.66 423.15L177.71 385.65L177.71 310.65zM177.71 385.65L242.66 423.15L242.66 498.15L177.71 535.65L112.75 498.15L112.75 423.15zM242.66 498.15L307.62 535.65L307.62 610.65L242.66 648.15L177.71 610.65L177.71 535.65zM372.57 48.15L437.52 85.65L437.52 160.65L372.57 198.15L307.62 160.65L307.62 85.65zM307.62 160.65L372.57 198.15L372.57 273.15L307.62 310.65L242.66 273.15L242.66 198.15zM307.62 385.65L372.57 423.15L372.57 498.15L307.62 535.65L242.66 498.15L242.66 423.15zM502.48 48.15L567.43 85.65L567.43 160.65L502.48 198.15L437.52 160.65L437.52 85.65zM632.38 48.15L697.34 85.65L697.34 160.65L632.38 198.15L567.43 160.65L567.43 85.65zM632.38 273.15L697.34 310.65L697.34 385.65L632.38 423.15L567.43 385.65L567.43 310.65zM567.43 385.65L632.38 423.15L632.38 498.15L567.43 535.65L502.48 498.15L502.48 423.15zM632.38 498.15L697.34 535.65L697.34 610.65L632.38 648.15L567.43 610.65L567.43 535.65zM762.29 498.15L827.25 535.65L827.25 610.65L762.29 648.15L697.34 610.65L697.34 535.65zM827.24 -64.35L892.2 -26.85L892.2 48.15L827.24 85.65L762.29 48.15L762.29 -26.85zM892.2 273.15L957.15 310.65L957.15 385.65L892.2 423.15L827.24 385.65L827.24 310.65zM827.24 385.65L892.2 423.15L892.2 498.15L827.24 535.65L762.29 498.15L762.29 423.15zM892.2 498.15L957.15 535.65L957.15 610.65L892.2 648.15L827.24 610.65L827.24 535.65zM957.15 -64.35L1022.11 -26.85L1022.11 48.15L957.15 85.65L892.2 48.15L892.2 -26.85zM1022.11 48.15L1087.06 85.65L1087.06 160.65L1022.11 198.15L957.15 160.65L957.15 85.65zM957.15 160.65L1022.11 198.15L1022.11 273.15L957.15 310.65L892.2 273.15L892.2 198.15zM1022.11 273.15L1087.06 310.65L1087.06 385.65L1022.11 423.15L957.15 385.65L957.15 310.65zM957.15 385.65L1022.11 423.15L1022.11 498.15L957.15 535.65L892.2 498.15L892.2 423.15zM1022.11 498.15L1087.06 535.65L1087.06 610.65L1022.11 648.15L957.15 610.65L957.15 535.65zM1152.01 498.15L1216.97 535.65L1216.97 610.65L1152.01 648.15L1087.06 610.65L1087.06 535.65zM1281.92 273.15L1346.87 310.65L1346.87 385.65L1281.92 423.15L1216.97 385.65L1216.97 310.65zM1346.88 -64.35L1411.83 -26.85L1411.83 48.15L1346.88 85.65L1281.92 48.15L1281.92 -26.85zM1411.83 273.15L1476.78 310.65L1476.78 385.65L1411.83 423.15L1346.88 385.65L1346.88 310.65zM1476.78 -64.35L1541.74 -26.85L1541.74 48.15L1476.78 85.65L1411.83 48.15L1411.83 -26.85zM1476.78 160.65L1541.74 198.15L1541.74 273.15L1476.78 310.65L1411.83 273.15L1411.83 198.15zM1476.78 385.65L1541.74 423.15L1541.74 498.15L1476.78 535.65L1411.83 498.15L1411.83 423.15zM1541.74 498.15L1606.69 535.65L1606.69 610.65L1541.74 648.15L1476.78 610.65L1476.78 535.65z" stroke="rgba(235, 236, 243, 1)" stroke-width="2"></path><path d="M42.46 -39.53L85.76 -14.53L85.76 35.47L42.46 60.47L-0.84 35.47L-0.84 -14.53zM42.46 110.47L85.76 135.47L85.76 185.47L42.46 210.47L-0.84 185.47L-0.84 135.47zM85.76 335.47L129.06 360.47L129.06 410.47L85.76 435.47L42.46 410.47L42.46 360.47zM85.76 485.47L129.06 510.47L129.06 560.47L85.76 585.47L42.46 560.47L42.46 510.47zM129.06 -39.53L172.37 -14.53L172.37 35.47L129.06 60.47L85.76 35.47L85.76 -14.53zM215.67 260.47L258.97 285.47L258.97 335.47L215.67 360.47L172.37 335.47L172.37 285.47zM258.97 335.47L302.27 360.47L302.27 410.47L258.97 435.47L215.67 410.47L215.67 360.47zM302.27 -39.53L345.58 -14.53L345.58 35.47L302.27 60.47L258.97 35.47L258.97 -14.53zM345.58 185.47L388.88 210.47L388.88 260.47L345.58 285.47L302.27 260.47L302.27 210.47zM302.27 260.47L345.58 285.47L345.58 335.47L302.27 360.47L258.97 335.47L258.97 285.47zM345.58 335.47L388.88 360.47L388.88 410.47L345.58 435.47L302.27 410.47L302.27 360.47zM302.27 410.47L345.58 435.47L345.58 485.47L302.27 510.47L258.97 485.47L258.97 435.47zM345.58 485.47L388.88 510.47L388.88 560.47L345.58 585.47L302.27 560.47L302.27 510.47zM388.88 -39.53L432.18 -14.53L432.18 35.47L388.88 60.47L345.58 35.47L345.58 -14.53zM432.18 35.47L475.49 60.47L475.49 110.47L432.18 135.47L388.88 110.47L388.88 60.47zM518.79 35.47L562.09 60.47L562.09 110.47L518.79 135.47L475.49 110.47L475.49 60.47zM475.49 110.47L518.79 135.47L518.79 185.47L475.49 210.47L432.18 185.47L432.18 135.47zM518.79 335.47L562.09 360.47L562.09 410.47L518.79 435.47L475.49 410.47L475.49 360.47zM562.09 -39.53L605.39 -14.53L605.39 35.47L562.09 60.47L518.79 35.47L518.79 -14.53zM562.09 260.47L605.39 285.47L605.39 335.47L562.09 360.47L518.79 335.47L518.79 285.47zM648.7 -39.53L692 -14.53L692 35.47L648.7 60.47L605.39 35.47L605.39 -14.53zM692 35.47L735.3 60.47L735.3 110.47L692 135.47L648.7 110.47L648.7 60.47zM692 185.47L735.3 210.47L735.3 260.47L692 285.47L648.7 260.47L648.7 210.47zM692 335.47L735.3 360.47L735.3 410.47L692 435.47L648.7 410.47L648.7 360.47zM778.6 185.47L821.91 210.47L821.91 260.47L778.6 285.47L735.3 260.47L735.3 210.47zM735.3 410.47L778.6 435.47L778.6 485.47L735.3 510.47L692 485.47L692 435.47zM951.81 35.47L995.12 60.47L995.12 110.47L951.81 135.47L908.51 110.47L908.51 60.47zM951.81 185.47L995.12 210.47L995.12 260.47L951.81 285.47L908.51 260.47L908.51 210.47zM908.51 260.47L951.81 285.47L951.81 335.47L908.51 360.47L865.21 335.47L865.21 285.47zM951.81 485.47L995.12 510.47L995.12 560.47L951.81 585.47L908.51 560.47L908.51 510.47zM1038.42 185.47L1081.72 210.47L1081.72 260.47L1038.42 285.47L995.12 260.47L995.12 210.47zM1125.02 335.47L1168.33 360.47L1168.33 410.47L1125.02 435.47L1081.72 410.47L1081.72 360.47zM1168.33 -39.53L1211.63 -14.53L1211.63 35.47L1168.33 60.47L1125.02 35.47L1125.02 -14.53zM1168.33 110.47L1211.63 135.47L1211.63 185.47L1168.33 210.47L1125.02 185.47L1125.02 135.47zM1168.33 260.47L1211.63 285.47L1211.63 335.47L1168.33 360.47L1125.02 335.47L1125.02 285.47zM1298.23 335.47L1341.54 360.47L1341.54 410.47L1298.23 435.47L1254.93 410.47L1254.93 360.47zM1254.93 410.47L1298.23 435.47L1298.23 485.47L1254.93 510.47L1211.63 485.47L1211.63 435.47zM1298.23 485.47L1341.54 510.47L1341.54 560.47L1298.23 585.47L1254.93 560.47L1254.93 510.47zM1384.84 35.47L1428.14 60.47L1428.14 110.47L1384.84 135.47L1341.54 110.47L1341.54 60.47zM1384.84 185.47L1428.14 210.47L1428.14 260.47L1384.84 285.47L1341.54 260.47L1341.54 210.47zM1471.44 35.47L1514.75 60.47L1514.75 110.47L1471.44 135.47L1428.14 110.47L1428.14 60.47zM1428.14 110.47L1471.44 135.47L1471.44 185.47L1428.14 210.47L1384.84 185.47L1384.84 135.47zM1428.14 410.47L1471.44 435.47L1471.44 485.47L1428.14 510.47L1384.84 485.47L1384.84 435.47zM1471.44 485.47L1514.75 510.47L1514.75 560.47L1471.44 585.47L1428.14 560.47L1428.14 510.47z" stroke="url(&quot;#SvgjsLinearGradient2784&quot;)" stroke-width="2"></path></g><defs><mask id="SvgjsMask2782"><rect width="1440" height="560" fill="#ffffff"></rect></mask><linearGradient x1="50%" y1="0%" x2="50%" y2="100%" gradientUnits="userSpaceOnUse" id="SvgjsLinearGradient2783"><stop stop-color="rgba(198, 106, 0, 1)" offset="0"></stop><stop stop-color="rgba(198, 106, 0, 1)" offset="0.18"></stop><stop stop-color="rgba(239, 255, 233, 1)" offset="1"></stop></linearGradient><linearGradient x1="720" y1="0" x2="720" y2="560" gradientUnits="userSpaceOnUse" id="SvgjsLinearGradient2784"><stop stop-color="rgba(16, 27, 6, 1)" offset="0"></stop><stop stop-color="rgba(16, 27, 6, 1)" offset="0.59"></stop><stop stop-color="rgba(235, 236, 243, 1)" offset="1"></stop></linearGradient></defs></svg>